# xmcd
#
# Track frame offsets:
#	150
#	15583
#	31015
#	47604
#	66318
#	68201
#
# Disc length: 1068 seconds
#
# Revision: 2
# Processed by: cddbd v1.5.2PL0 Copyright (c) Steve Scherf et al.
# Submitted via: EasyCDDAExtractor 12.0.4.1
#
DISCID=46042a06
DTITLE=Anna Maria Jopek - Ksiezyc Jest Niemym Poslancem
DYEAR=1900
DGENRE=Blues
TTITLE0=Ksiezyc Jest Niemym Poslancem
TTITLE1=Zanim Zasne
TTITLE2=I O Co Tyle Milczenia - Umysl I Cialo 
TTITLE3=Jezeli chcesz
TTITLE4=commercial
TTITLE5=Oczy przezroczyste
EXTD=
EXTT0=
EXTT1=
EXTT2=
EXTT3=
EXTT4=
EXTT5=
PLAYORDER=
